<svg width="154" height="30" fill="none" xmlns="http://www.w3.org/2000/svg"><path d="M0 21.804c0-1.169.22-2.261.658-3.278a8.764 8.764 0 011.858-2.706 8.845 8.845 0 012.672-1.868 8.033 8.033 0 013.29-.686c.775 0 1.485.101 2.13.304.645.178 1.2.407 1.665.687.464.28.838.572 1.122.876.284.305.478.572.581.8l.155-2.248h3.175v15.934h-3.33v-2.02c-.129.203-.335.444-.62.724-.283.28-.657.546-1.122.8a8.574 8.574 0 01-1.587.61c-.62.178-1.33.267-2.13.267-1.239 0-2.387-.216-3.445-.648A8.909 8.909 0 012.4 27.56a8.815 8.815 0 01-1.78-2.63A8.046 8.046 0 010 21.804zm3.33-.19c0 .737.129 1.423.387 2.058a5.317 5.317 0 001.122 1.64 5.41 5.41 0 001.665 1.105 5.763 5.763 0 002.13.381c.774 0 1.484-.127 2.129-.381a5.3 5.3 0 001.703-1.106c.49-.483.865-1.029 1.123-1.639a5.417 5.417 0 00.387-2.058c0-.737-.129-1.41-.387-2.02a4.558 4.558 0 00-1.123-1.64 4.827 4.827 0 00-1.703-1.067 5.3 5.3 0 00-2.13-.42 5.3 5.3 0 00-2.129.42 4.9 4.9 0 00-1.665 1.067 5.317 5.317 0 00-1.122 1.64 5.133 5.133 0 00-.388 2.02zM39.26 21.69c0 1.194-.206 2.3-.619 3.316a7.723 7.723 0 01-1.742 2.63c-.749.738-1.652 1.322-2.71 1.754-1.033.407-2.168.61-3.407.61a7.44 7.44 0 01-1.858-.229 7.748 7.748 0 01-1.588-.533 8.41 8.41 0 01-1.277-.8c-.362-.306-.633-.61-.813-.916v.42c.025.127.038.254.038.38v1.297h-3.33V0h3.33v16.01c.207-.305.478-.61.813-.915a6.32 6.32 0 011.24-.876 7.78 7.78 0 011.625-.687 6.862 6.862 0 011.975-.266c1.239 0 2.361.203 3.368.61 1.032.38 1.91.94 2.633 1.677.748.711 1.316 1.588 1.703 2.63.413 1.042.62 2.21.62 3.507zm-3.6-.076c0-.737-.116-1.41-.348-2.02a4.633 4.633 0 00-1.007-1.64 4.572 4.572 0 00-1.587-1.067c-.62-.28-1.317-.42-2.091-.42-.774 0-1.497.14-2.168.42a4.9 4.9 0 00-1.665 1.067 5.316 5.316 0 00-1.122 1.64 5.133 5.133 0 00-.388 2.02c0 .737.13 1.423.388 2.058a5.316 5.316 0 001.122 1.64c.465.457 1.02.825 1.665 1.105a6.072 6.072 0 002.168.381c.774 0 1.471-.127 2.09-.381a5.05 5.05 0 001.588-1.106 5.132 5.132 0 001.007-1.639 5.95 5.95 0 00.348-2.058zM56.568 27.75c-.775.687-1.717 1.233-2.827 1.64a9.831 9.831 0 01-3.407.61 8.825 8.825 0 01-3.368-.648 9.44 9.44 0 01-2.71-1.792 8.9 8.9 0 01-1.858-2.668 8.088 8.088 0 01-.658-3.24c0-1.144.22-2.224.658-3.24a8.9 8.9 0 011.858-2.669 8.617 8.617 0 012.672-1.791 8.033 8.033 0 013.29-.686c1.833 0 3.42.546 4.762 1.639 1.368 1.067 2.349 2.478 2.943 4.231-.8.28-1.717.623-2.75 1.03-1.032.406-2.103.838-3.212 1.295l-3.33 1.296c-1.11.432-2.142.826-3.097 1.182a5.334 5.334 0 001.897 2.097 5.412 5.412 0 002.826.762c.697 0 1.394-.127 2.09-.381.723-.254 1.304-.597 1.743-1.03l2.478 2.364zm-2.788-9.376c-.31-.636-.8-1.106-1.471-1.41a4.6 4.6 0 00-2.052-.496c-.748 0-1.445.14-2.09.419-.62.28-1.162.66-1.627 1.143a5.456 5.456 0 00-1.122 1.601 4.751 4.751 0 00-.387 1.868v.267a.29.29 0 01.038.115c.671-.255 1.394-.534 2.168-.84.8-.33 1.588-.647 2.362-.952.774-.33 1.523-.635 2.245-.915.723-.305 1.368-.572 1.936-.8zM60.783 13.685h2.904c.052.788.09 1.512.116 2.173l.155 1.906c.594-1.373 1.432-2.465 2.517-3.279 1.11-.813 2.464-1.22 4.065-1.22 1.626 0 2.929.445 3.91 1.335.98.89 1.497 2.033 1.548 3.43V29.62h-3.33V19.517c-.05-.813-.335-1.5-.85-2.058-.517-.585-1.33-.902-2.44-.953a5.3 5.3 0 00-2.13.419c-.645.254-1.2.61-1.664 1.067a5.316 5.316 0 00-1.123 1.64 5.52 5.52 0 00-.387 2.096v7.89h-3.29V13.686zM83.81 29.619h-3.29V0h3.29v29.619zM87.374 21.804c0-1.169.22-2.261.658-3.278a8.764 8.764 0 011.858-2.706 8.845 8.845 0 012.671-1.868 8.033 8.033 0 013.291-.686c.775 0 1.484.101 2.13.304.645.178 1.2.407 1.664.687.465.28.839.572 1.123.876.284.305.478.572.581.8l.155-2.248h3.174v15.934h-3.329v-2.02c-.129.203-.336.444-.62.724-.284.28-.658.546-1.122.8a8.572 8.572 0 01-1.588.61c-.62.178-1.329.267-2.129.267-1.239 0-2.387-.216-3.446-.648a8.909 8.909 0 01-2.671-1.792 8.816 8.816 0 01-1.78-2.63 8.048 8.048 0 01-.62-3.126zm3.33-.19c0 .737.128 1.423.386 2.058a5.317 5.317 0 001.123 1.64c.465.457 1.02.825 1.665 1.105a5.763 5.763 0 002.13.381c.773 0 1.483-.127 2.129-.381a5.3 5.3 0 001.703-1.106c.49-.483.865-1.029 1.123-1.639a5.42 5.42 0 00.387-2.058c0-.737-.129-1.41-.387-2.02a4.562 4.562 0 00-1.123-1.64 4.827 4.827 0 00-1.704-1.067 5.3 5.3 0 00-2.129-.42 5.3 5.3 0 00-2.13.42 4.9 4.9 0 00-1.664 1.067 5.317 5.317 0 00-1.123 1.64 5.133 5.133 0 00-.387 2.02zM109.328 13.685h2.904c.052.788.09 1.512.116 2.173l.155 1.906c.594-1.373 1.433-2.465 2.517-3.279 1.109-.813 2.464-1.22 4.065-1.22 1.626 0 2.929.445 3.91 1.335.981.89 1.497 2.033 1.549 3.43V29.62h-3.33V19.517c-.052-.813-.335-1.5-.852-2.058-.516-.585-1.329-.902-2.439-.953a5.3 5.3 0 00-2.129.419c-.645.254-1.2.61-1.665 1.067a5.33 5.33 0 00-1.123 1.64 5.522 5.522 0 00-.387 2.096v7.89h-3.291V13.686zM127.942 21.652c0-1.245.207-2.376.62-3.393.439-1.042 1.032-1.931 1.781-2.668a7.956 7.956 0 012.632-1.715 9.01 9.01 0 013.33-.61c.8 0 1.51.101 2.129.304.645.178 1.187.407 1.626.687a4.6 4.6 0 011.162.876c.309.33.542.623.696.877V0h3.33v29.619h-3.33v-1.182c0-.152.013-.318.039-.495.026-.204.039-.369.039-.496a7.84 7.84 0 01-.929.915c-.336.28-.736.546-1.2.8a6.75 6.75 0 01-1.626.61c-.594.153-1.278.229-2.052.229-1.291 0-2.452-.216-3.485-.648a8.55 8.55 0 01-2.594-1.792 8.272 8.272 0 01-1.626-2.668 9.61 9.61 0 01-.542-3.24zm3.33-.038c0 .737.129 1.423.387 2.058a5.312 5.312 0 001.123 1.64 5.403 5.403 0 001.664 1.105 5.767 5.767 0 002.13.381c.774 0 1.484-.127 2.129-.381a5.308 5.308 0 001.704-1.106c.49-.483.864-1.029 1.122-1.639a5.42 5.42 0 00.387-2.058c0-.737-.129-1.41-.387-2.02a4.56 4.56 0 00-1.122-1.64 4.833 4.833 0 00-1.704-1.067 5.3 5.3 0 00-2.129-.42c-.775 0-1.484.14-2.13.42-.645.254-1.2.61-1.664 1.067a5.312 5.312 0 00-1.123 1.64 5.134 5.134 0 00-.387 2.02zM149.664 27.484c0-.61.219-1.118.658-1.525.465-.432.981-.648 1.549-.648.516 0 .993.216 1.432.648.465.407.697.915.697 1.525 0 .66-.232 1.182-.697 1.563-.439.381-.916.572-1.432.572-.568 0-1.084-.19-1.549-.572-.439-.381-.658-.902-.658-1.563z" fill="#fff"/></svg>